<svg xmlns="http://www.w3.org/2000/svg" width="512" height="512" viewBox="0 0 512 512">
  <title>BrewMap responsive micro icon</title>
  <rect width="512" height="512" rx="112" fill="#2D1B12"/>
  <path d="M358 181 C424 170 449 208 445 255 C441 314 405 342 354 328"
        fill="none" stroke="#F8EBD2" stroke-width="36" stroke-linecap="round"/>
  <path d="M90 140 Q90 114 116 114 H345 Q371 114 371 140 V276 C371 355 312 398 231 398 C150 398 90 355 90 276 Z" fill="#F8EBD2"/>
  <path d="M231 178 C190 178 161 207 161 246 C161 297 231 360 231 360 C231 360 301 297 301 246 C301 207 272 178 231 178 Z" fill="#D96B2B"/>
  <circle cx="231" cy="243" r="22" fill="#2D1B12"/>
</svg>