<svg xmlns="http://www.w3.org/2000/svg" width="512" height="400" viewBox="0 0 512 400" role="img">
  <title>BrewMap selected cafe cup marker</title>
  <desc>A standalone BrewMap coffee cup marker with an orange active-location halo.</desc>
  <ellipse cx="256" cy="346" rx="143" ry="32" fill="none" stroke="#D96B2B" stroke-width="18" opacity="0.95"/>
  <ellipse cx="256" cy="346" rx="54" ry="13" fill="#2D1B12" opacity="0.2"/>
  <g transform="translate(0 8)">
    <path d="M382 128 C445 110 483 145 476 198 C470 247 429 276 381 251" fill="none" stroke="#2D1B12" stroke-width="70" stroke-linecap="round" stroke-linejoin="round"/>
    <path d="M382 128 C445 110 483 145 476 198 C470 247 429 276 381 251" fill="none" stroke="#F8EBD2" stroke-width="38" stroke-linecap="round" stroke-linejoin="round"/>
    <path d="M83 100 C90 255 139 326 251 326 C363 326 412 255 419 100 Z" fill="#2D1B12"/>
    <path d="M116 124 C125 239 164 287 251 287 C338 287 377 239 386 124 Z" fill="#F8EBD2"/>
    <ellipse cx="251" cy="103" rx="169" ry="66" fill="#2D1B12"/>
    <ellipse cx="251" cy="102" rx="139" ry="48" fill="#F8EBD2"/>
    <ellipse cx="251" cy="106" rx="105" ry="31" fill="#2D1B12"/>
    <path d="M298 95 C322 101 336 111 338 124" fill="none" stroke="#D96B2B" stroke-width="12" stroke-linecap="round"/>
  </g>
</svg>
